<svg width="200" height="66" viewBox="0 0 200 66" fill="none" xmlns="http://www.w3.org/2000/svg">
<g clip-path="url(#clip0_303_2)">
<path d="M12.375 0H0V66H12.375V0Z" fill="#374151"/>
<path d="M54.375 0H24.75V12.375H42V24.75H24.75V37.125H42V49.5H24.75V66H54.375V0Z" fill="#374151"/>
<path d="M110.25 0H68.625V66H81V40.8375L101.812 66H117.825L94.4625 38.0625L118.25 0H101.812L81 25.575V0H110.25Z" fill="#374151"/>
<path d="M140.25 0C163.519 0 182.25 14.7188 182.25 33C182.25 51.2812 163.519 66 140.25 66C116.981 66 98.25 51.2812 98.25 33C98.25 14.7188 116.981 0 140.25 0ZM140.25 53.625C155.831 53.625 167.625 44.9156 167.625 33C167.625 21.0844 155.831 12.375 140.25 12.375C124.669 12.375 112.875 21.0844 112.875 33C112.875 44.9156 124.669 53.625 140.25 53.625Z" fill="#374151"/>
<path d="M187.875 0H175.5V66H187.875V0Z" fill="#374151"/>
</g>
<defs>
<clipPath id="clip0_303_2">
<rect width="200" height="66" fill="white"/>
</clipPath>
</defs>
</svg>