<svg version="1.1" id="Layer_1" xmlns="http://www.w3.org/2000/svg" xmlns:xlink="http://www.w3.org/1999/xlink" x="0px" y="0px"
	 width="100%" viewBox="0 0 1920 1080" enable-background="new 0 0 1920 1080" xml:space="preserve">
<path fill="#FFFFFF" opacity="1.000000" stroke="none" 
	d="
M1411.000000,1081.000000 
	C940.666748,1081.000000 470.833496,1081.000000 1.000189,1081.000000 
	C1.000126,721.000122 1.000126,361.000305 1.000063,1.000223 
	C1.999851,1.000000 2.999703,1.000000 3.999554,1.000000 
	C642.999451,1.000000 1281.999390,1.000000 1920.999512,1.000000 
	C1920.999634,360.999664 1920.999634,720.999329 1920.999756,1080.999512 
	C1751.166626,1081.000000 1581.333374,1081.000000 1411.000000,1081.000000 
M944.592957,684.093811 
	C960.607361,668.439331 974.904358,651.346069 987.198303,632.628845 
	C1017.781921,586.065979 1035.271118,535.065796 1039.229492,479.409882 
	C1041.201050,451.690125 1039.778320,424.214264 1034.518188,396.958435 
	C1023.851501,341.688324 1000.229919,292.566284 963.754395,249.721222 
	C934.290833,215.112488 898.892273,187.955994 857.808289,168.661621 
	C803.421021,143.119522 746.139648,133.394043 686.299255,140.055756 
	C659.586792,143.029495 633.576355,149.212692 608.463562,158.870911 
	C562.502319,176.547302 522.673035,203.301147 488.921844,239.250305 
	C469.051056,260.415161 452.435944,283.804962 439.154327,309.533600 
	C411.898193,362.333344 399.909576,418.359467 403.805206,477.787567 
	C405.413177,502.316406 409.719727,526.301880 416.908020,549.728210 
	C434.579468,607.318787 466.263794,655.932129 511.285217,695.945007 
	C545.567200,726.413147 584.890076,748.006165 628.517273,761.462097 
	C675.663940,776.003418 723.859497,779.052979 772.588928,771.067261 
	C838.775940,760.220581 895.947388,731.314575 944.592957,684.093811 
M1579.902710,693.602478 
	C1512.913330,608.597351 1445.923950,523.592224 1378.871460,438.506958 
	C1461.226318,334.297363 1543.350830,230.379379 1626.290405,125.429886 
	C1623.108887,125.429886 1621.330566,125.429893 1619.552124,125.429893 
	C1562.726562,125.429886 1505.900879,125.474693 1449.075684,125.336868 
	C1444.945312,125.326859 1442.477661,126.671906 1440.009521,129.923767 
	C1371.538574,220.134415 1302.960938,310.264160 1234.391357,400.400024 
	C1233.466675,401.615509 1232.418213,402.736938 1230.414062,405.094513 
	C1230.414062,310.954681 1230.414062,218.411438 1230.414062,125.883049 
	C1178.327026,125.883049 1126.803955,125.883049 1075.303467,125.883049 
	C1075.303467,338.744354 1075.303467,551.152344 1075.303467,763.690918 
	C1127.107300,763.690918 1178.653931,763.690918 1230.692627,763.690918 
	C1230.692627,670.181824 1230.692627,576.980469 1230.692627,482.371887 
	C1232.527344,484.699188 1233.531860,485.935486 1234.496460,487.202209 
	C1303.813599,578.234192 1373.140015,669.259033 1442.379883,760.349854 
	C1444.402466,763.010620 1446.404907,764.081299 1449.766602,764.075500 
	C1509.924927,763.971863 1570.083374,764.000122 1630.241821,764.000122 
	C1631.639282,764.000122 1633.036865,764.000122 1635.326294,764.000122 
	C1616.550781,740.165527 1598.436523,717.170105 1579.902710,693.602478 
M130.500000,763.999634 
	C227.595139,763.999634 324.690277,763.999634 421.781921,763.999634 
	C421.781921,723.651550 421.781921,683.916626 421.781921,643.712646 
	C353.883850,643.712646 286.308044,643.712646 218.186035,643.712646 
	C218.186035,470.851471 218.186035,298.460144 218.186035,125.824989 
	C166.239182,125.824989 114.841331,125.824989 63.261192,125.824989 
	C63.261192,338.621918 63.261192,551.157959 63.261192,763.999634 
	C85.553978,763.999634 107.526993,763.999634 130.500000,763.999634 
M1821.500000,763.999634 
	C1835.620483,763.999634 1849.740967,763.999634 1863.965698,763.999634 
	C1863.965698,550.988403 1863.965698,338.486267 1863.965698,125.854996 
	C1812.217041,125.854996 1760.824707,125.854996 1709.300293,125.854996 
	C1709.300293,338.659821 1709.300293,551.173828 1709.300293,763.999634 
	C1746.571167,763.999634 1783.535645,763.999634 1821.500000,763.999634 
M989.093872,866.700562 
	C988.372498,865.472717 987.735352,863.253174 986.915527,863.183411 
	C982.692505,862.824402 978.422668,863.016968 973.472534,863.016968 
	C973.472534,881.033264 973.472534,898.218262 973.472534,916.639893 
	C972.000671,914.985596 971.381897,914.461914 970.974182,913.806946 
	C961.300720,898.265991 951.679199,882.692505 941.950806,867.186035 
	C940.956299,865.600830 939.436401,863.331482 938.007080,863.211914 
	C932.454285,862.747375 926.839661,863.022766 921.237915,863.022766 
	C921.237915,890.695862 921.237915,917.595642 921.237915,944.600586 
	C926.318054,944.600586 931.035156,944.600586 936.489990,944.600586 
	C936.489990,925.906982 936.489990,907.602844 936.489990,887.838806 
	C938.336609,890.071777 939.279724,890.975220 939.943970,892.050903 
	C949.998901,908.333862 959.996826,924.651978 970.078857,940.918091 
	C970.998962,942.402710 972.312378,944.616638 973.598328,944.729858 
	C978.641418,945.173828 983.746765,944.911438 989.095398,944.911438 
	C989.095398,918.624634 989.095398,893.141541 989.093872,866.700562 
M190.874893,880.501221 
	C190.874893,892.128113 190.874893,903.755066 190.874893,915.381958 
	C188.960602,915.027954 188.445389,914.616150 188.117325,914.088074 
	C178.370590,898.398987 168.674728,882.678101 158.861389,867.030823 
	C157.878601,865.463867 156.287888,863.306580 154.829849,863.182678 
	C149.419159,862.722900 143.945908,862.999512 138.300659,862.999512 
	C138.300659,890.587585 138.300659,917.598694 138.300659,944.535522 
	C143.444489,944.535522 148.153839,944.535522 153.389786,944.535522 
	C153.389786,925.854797 153.389786,907.633179 153.389786,889.411499 
	C155.435593,890.189636 156.469116,891.336914 157.267258,892.629578 
	C167.320450,908.911377 177.308746,925.233459 187.422012,941.477722 
	C188.301132,942.889832 189.869705,944.701660 191.249680,944.822388 
	C195.989349,945.236877 200.787582,944.981567 205.643158,944.981567 
	C205.643158,917.326538 205.643158,890.311829 205.643158,863.309387 
	C200.597717,863.309387 196.009232,863.309387 190.874603,863.309387 
	C190.874603,868.925781 190.874603,874.213806 190.874893,880.501221 
M1353.031494,883.346497 
	C1352.911621,872.423767 1348.728149,866.575012 1338.049683,864.027405 
	C1333.290771,862.892151 1328.172119,863.088013 1323.211670,863.012146 
	C1313.947876,862.870422 1304.680176,862.971436 1295.313721,862.971436 
	C1295.313721,890.644043 1295.313721,917.639954 1295.313721,944.078125 
	C1310.513062,944.078125 1325.321045,944.814270 1340.014282,943.832947 
	C1350.752930,943.115723 1357.656128,935.067017 1358.923828,924.992126 
	C1360.386841,913.365906 1356.247192,905.839233 1345.684326,900.870605 
	C1344.867310,900.486389 1344.117310,899.959656 1342.918091,899.252563 
	C1348.715088,895.468201 1352.657227,890.980408 1353.031494,883.346497 
M1810.041260,917.500000 
	C1810.041260,926.573914 1810.041260,935.647827 1810.041260,944.900085 
	C1822.552734,944.900085 1834.238525,945.558167 1845.819946,944.739014 
	C1861.461670,943.632568 1873.516846,936.441956 1878.458740,920.622925 
	C1881.048462,912.332947 1881.302124,903.783569 1880.172119,895.024231 
	C1878.243286,880.072937 1869.948120,869.278320 1855.505737,865.084961 
	C1851.257080,863.851318 1846.716553,863.206909 1842.288574,863.088623 
	C1831.707397,862.806091 1821.113647,862.997437 1810.041382,862.997437 
	C1810.041382,881.286133 1810.041382,898.893066 1810.041260,917.500000 
M1396.967407,944.799133 
	C1402.911743,945.184998 1408.928223,946.342834 1414.785156,945.794739 
	C1426.686523,944.681030 1436.178833,939.192261 1441.987549,928.187317 
	C1446.582764,919.481323 1447.365112,910.164978 1447.030884,900.603333 
	C1446.085815,873.578796 1429.388306,858.810364 1401.571045,862.279785 
	C1388.465088,863.914307 1378.904175,871.250977 1374.010376,883.934631 
	C1369.929565,894.510986 1369.993774,905.422546 1371.931519,916.319519 
	C1374.431885,930.381104 1382.193481,940.214844 1396.967407,944.799133 
M1782.472046,872.038696 
	C1771.869385,861.845764 1759.006836,860.296692 1745.347900,862.804810 
	C1730.922974,865.453735 1722.091919,874.640259 1718.584106,888.507385 
	C1717.063232,894.520020 1716.929932,901.012390 1717.003296,907.277100 
	C1717.306641,933.184326 1733.898071,949.199341 1762.319336,945.739868 
	C1771.280762,944.649048 1779.043823,940.570923 1784.861572,933.231934 
	C1796.285278,918.820435 1796.316406,886.231079 1782.472046,872.038696 
M1133.028198,866.392639 
	C1128.765015,870.483643 1123.018433,873.825378 1120.505493,878.800476 
	C1111.482544,896.664124 1111.674194,915.070801 1121.488159,932.674377 
	C1128.215332,944.741089 1143.091309,948.786133 1155.983887,944.833008 
	C1161.069458,943.273682 1165.223022,938.675415 1169.745117,935.500183 
	C1169.865967,937.839478 1170.039062,941.190613 1170.214478,944.589111 
	C1175.355469,944.589111 1180.063354,944.589111 1184.782349,944.589111 
	C1184.782349,929.601990 1184.782349,915.031006 1184.782349,900.306152 
	C1173.069092,900.306152 1161.709839,900.306152 1150.274658,900.306152 
	C1150.274658,904.630798 1150.274658,908.538452 1150.274658,913.114563 
	C1156.646484,913.114563 1162.703491,913.114563 1168.790894,913.114563 
	C1169.385376,919.418396 1169.242798,924.915710 1164.326660,928.792114 
	C1154.925049,936.205139 1138.892334,932.321106 1134.215088,921.319885 
	C1132.623535,917.576233 1131.404297,913.297546 1131.495972,909.297302 
	C1131.661499,902.077515 1131.717529,894.463989 1134.011353,887.765442 
	C1138.828125,873.698914 1159.662964,871.287659 1169.598633,882.986633 
	C1170.618042,884.186829 1172.821411,885.941711 1173.532959,885.580872 
	C1177.179565,883.731323 1181.958252,881.939941 1183.422729,878.776855 
	C1184.299927,876.882080 1179.868530,872.481934 1177.723633,869.274475 
	C1177.291260,868.627930 1176.444458,868.223633 1175.731567,867.804810 
	C1162.034180,859.756287 1147.988770,859.939331 1133.028198,866.392639 
M343.829559,943.562622 
	C355.900513,938.828857 362.864777,929.737305 364.955872,917.247986 
	C366.069702,910.595581 366.574036,903.594543 365.777924,896.939392 
	C365.008270,890.504944 363.267639,883.718567 360.109589,878.128540 
	C351.711456,863.263306 336.081573,860.018127 319.135712,862.598450 
	C311.037292,863.831543 304.057495,867.627197 298.861755,874.230164 
	C289.738190,885.825073 289.008972,899.250488 290.561035,913.089844 
	C291.650360,922.803284 295.118347,931.596802 302.922119,937.864075 
	C315.049469,947.603821 328.817566,947.805359 343.829559,943.562622 
M1694.084595,873.455078 
	C1683.860596,861.999451 1670.674927,860.403198 1656.617188,862.678406 
	C1642.401855,864.979126 1633.518066,873.723694 1629.404297,887.290649 
	C1626.769287,895.980591 1626.419189,904.863647 1627.912109,913.887817 
	C1630.148438,927.406921 1636.077026,938.401184 1649.518311,943.185242 
	C1664.620850,948.560425 1679.312500,947.842346 1692.009888,936.590027 
	C1700.145996,929.379822 1702.778687,919.562256 1703.573608,909.286804 
	C1704.555054,896.601013 1702.898682,884.388855 1694.084595,873.455078 
M685.255737,944.998291 
	C699.931519,941.412170 708.140686,931.708679 711.334106,917.324341 
	C711.907104,914.743713 712.385986,912.112854 712.574219,909.481262 
	C713.458862,897.110474 712.148865,885.086975 704.316223,874.939331 
	C694.661255,862.430664 680.991028,860.334900 666.534790,862.439697 
	C651.556946,864.620483 641.636658,873.664856 638.308105,888.307556 
	C636.513367,896.202881 636.299316,904.772461 637.067139,912.877258 
	C639.522217,938.792725 660.365906,949.785706 685.255737,944.998291 
M1477.509399,862.967712 
	C1473.236328,862.967712 1468.963379,862.967712 1464.525879,862.967712 
	C1464.525879,890.620728 1464.525879,917.620300 1464.525879,944.561279 
	C1470.151367,944.561279 1475.361328,944.561279 1481.099609,944.561279 
	C1481.099609,933.224365 1481.099609,922.322083 1481.099609,911.526062 
	C1495.668945,909.286011 1498.982788,911.267090 1503.360229,924.423584 
	C1505.248047,930.097290 1506.970093,935.835205 1509.132324,941.402222 
	C1509.703369,942.872559 1511.542236,944.697144 1512.951416,944.838379 
	C1517.376831,945.282288 1521.874756,945.001831 1527.355347,945.001831 
	C1520.865479,931.063477 1520.848145,915.109985 1508.156860,904.760132 
	C1508.913330,904.370361 1509.335083,904.127625 1509.776855,903.929138 
	C1520.302124,899.201477 1524.092651,892.729431 1522.950928,881.425659 
	C1522.052002,872.525696 1515.932861,865.405090 1505.842651,863.987854 
	C1496.859863,862.726074 1487.627686,863.238281 1477.509399,862.967712 
M1273.121704,915.500000 
	C1273.121704,898.098206 1273.121704,880.696411 1273.121704,863.348145 
	C1267.296997,863.348145 1262.391113,863.348145 1256.913574,863.348145 
	C1256.913574,873.618286 1256.913574,883.522156 1256.913574,893.926270 
	C1246.883667,893.926270 1237.425171,893.926636 1227.966675,893.926147 
	C1220.146729,893.925781 1220.146362,893.925354 1220.145874,886.106079 
	C1220.145386,878.522278 1220.145752,870.938477 1220.145752,863.309387 
	C1214.384155,863.309387 1209.476074,863.309387 1204.486816,863.309387 
	C1204.486816,890.671936 1204.486816,917.693665 1204.486816,944.628113 
	C1209.858765,944.628113 1214.778076,944.628113 1220.232422,944.628113 
	C1220.232422,932.345215 1220.232422,920.426697 1220.232422,908.202515 
	C1232.662842,908.202515 1244.545776,908.202515 1257.125122,908.202515 
	C1257.125122,920.535828 1257.125122,932.583374 1257.125122,944.675659 
	C1262.740967,944.675659 1267.654419,944.675659 1273.122070,944.675659 
	C1273.122070,935.072815 1273.122070,925.786438 1273.121704,915.500000 
M1601.520630,862.972778 
	C1599.107666,862.972778 1596.694702,862.972778 1593.726074,862.972778 
	C1593.726074,873.736572 1593.726074,883.641602 1593.726074,893.539673 
	C1581.260742,893.539673 1569.368652,893.539673 1556.909424,893.539673 
	C1556.909424,883.256042 1556.909424,873.347717 1556.909424,863.429810 
	C1551.296021,863.429810 1546.264404,863.429810 1541.357910,863.429810 
	C1541.357910,890.789917 1541.357910,917.691345 1541.357910,944.690552 
	C1546.659546,944.690552 1551.572876,944.690552 1557.172729,944.690552 
	C1557.172729,932.351074 1557.172729,920.302124 1557.172729,908.287292 
	C1569.757202,908.287292 1581.647095,908.287292 1594.049561,908.287292 
	C1594.049561,920.600525 1594.049561,932.518982 1594.049561,944.595337 
	C1599.606323,944.595337 1604.638184,944.595337 1609.688232,944.595337 
	C1609.688232,917.287354 1609.688232,890.385254 1609.688232,862.972717 
	C1607.063232,862.972717 1604.770874,862.972717 1601.520630,862.972778 
M871.195007,920.341614 
	C868.196045,915.010010 865.197083,909.678406 862.064331,904.108887 
	C861.879211,904.217712 862.537964,903.734436 863.268372,903.415588 
	C874.081726,898.695129 876.056030,891.495361 875.599304,883.275696 
	C874.975708,872.052490 869.440125,865.192322 858.201294,864.121765 
	C844.754761,862.840942 831.093018,863.819519 817.399170,863.819519 
	C817.399170,890.635742 817.399170,917.655579 817.399170,944.650818 
	C822.746643,944.650818 827.660767,944.650818 833.101440,944.650818 
	C833.101440,933.395203 833.101440,922.477966 833.101440,911.228333 
	C835.221008,911.118408 836.841187,910.969788 838.462097,910.960571 
	C850.206970,910.893921 851.938293,912.148376 855.650085,923.317261 
	C857.695129,929.470947 859.636108,935.662903 861.868835,941.747803 
	C862.337952,943.026184 863.814392,944.745117 864.936829,944.831665 
	C869.494629,945.183105 874.095398,944.977844 879.433105,944.977844 
	C876.597168,936.439941 874.043091,928.750549 871.195007,920.341614 
M791.842041,933.185913 
	C793.232117,927.437134 795.617981,921.723267 795.821472,915.932800 
	C796.382568,899.962891 796.039062,883.960876 796.026855,867.971558 
	C796.025635,866.387634 795.842529,864.803833 795.754517,863.390625 
	C790.224426,863.390625 785.324158,863.390625 780.057678,863.390625 
	C780.057678,865.452087 780.058228,867.093994 780.057556,868.735962 
	C780.051392,884.392151 780.118713,900.048889 780.009888,915.704407 
	C779.948303,924.556824 775.960449,929.868042 767.764282,931.533203 
	C757.925293,933.532166 746.617859,930.775391 745.598816,917.381958 
	C745.447998,915.400146 745.136230,913.420471 745.130554,911.439209 
	C745.089600,897.115540 745.118286,882.791687 745.095093,868.467896 
	C745.092285,866.723083 744.912659,864.978577 744.824707,863.408203 
	C739.267517,863.408203 734.374268,863.408203 729.195129,863.408203 
	C729.195129,881.643005 728.714844,899.459045 729.371643,917.233032 
	C729.779175,928.261536 733.423340,938.811462 745.091492,942.773926 
	C751.979004,945.112854 759.684998,945.732117 767.040649,945.832947 
	C776.909363,945.968201 785.636414,942.536804 791.842041,933.185913 
M100.994141,903.495544 
	C100.986862,907.495483 101.167664,911.506714 100.927109,915.492554 
	C100.587585,921.118225 99.304222,926.482605 93.906555,929.566101 
	C80.218910,937.385620 66.103905,929.378662 66.028954,913.751892 
	C65.957008,898.752441 66.010384,883.752502 66.008759,868.752747 
	C66.008568,866.984131 66.008736,865.215454 66.008736,863.291870 
	C60.403000,863.291870 55.500561,863.291870 50.600929,863.291870 
	C50.369331,864.046143 50.104511,864.507141 50.103939,864.968445 
	C50.082008,882.634399 49.811447,900.306519 50.211304,917.963440 
	C50.382576,925.526306 52.701000,932.756348 58.594692,938.203613 
	C66.290100,945.316162 75.758507,946.224182 85.626892,946.070923 
	C105.805115,945.757629 116.854744,934.826599 116.943298,914.715149 
	C117.012276,899.049072 116.971504,883.382446 116.951424,867.716064 
	C116.949577,866.275757 116.743790,864.835693 116.625381,863.300537 
	C111.322937,863.300537 106.419136,863.300537 100.994125,863.300537 
	C100.994125,876.581665 100.994125,889.539490 100.994141,903.495544 
M497.561310,903.972900 
	C494.671875,901.461426 497.386597,899.735352 498.630096,898.163025 
	C504.816406,890.340210 511.203552,882.676636 517.465515,874.913086 
	C520.398132,871.277161 523.207703,867.542114 526.753967,862.975159 
	C520.900330,862.975159 516.407837,862.731140 511.965729,863.097900 
	C510.243164,863.240173 508.192230,864.385742 507.049561,865.722717 
	C501.652161,872.037720 496.555878,878.608948 491.274628,885.024902 
	C488.109802,888.869629 484.801971,892.596680 481.558411,896.376587 
	C481.044006,896.169556 480.529633,895.962585 480.015228,895.755554 
	C480.015228,884.928589 480.015228,874.101624 480.015228,863.322510 
	C474.273743,863.322510 469.364258,863.322510 464.411987,863.322510 
	C464.411987,890.684143 464.411987,917.692627 464.411987,944.641113 
	C469.771912,944.641113 474.683441,944.641113 480.244568,944.641113 
	C480.244568,932.936951 480.244568,921.579346 480.244568,908.789856 
	C482.193329,910.616211 483.169037,911.349304 483.923004,912.265015 
	C492.165131,922.275024 500.350677,932.331726 508.621460,942.317871 
	C509.507324,943.387512 510.801544,944.790222 511.963409,944.845825 
	C517.507996,945.111206 523.072266,944.964783 530.165222,944.964783 
	C518.814148,930.672607 508.421143,917.586792 497.561310,903.972900 
M1064.168213,944.951111 
	C1065.025513,940.602600 1065.882690,936.254028 1066.925171,930.966125 
	C1052.692871,930.966125 1039.999756,930.966125 1027.314697,930.966125 
	C1027.314697,923.317078 1027.314697,916.408081 1027.314697,908.840088 
	C1038.353149,908.840088 1049.066528,908.840088 1059.767822,908.840088 
	C1059.767822,904.258362 1059.767822,900.347351 1059.767822,895.746704 
	C1048.715210,895.746704 1038.005859,895.746704 1027.353271,895.746704 
	C1027.353271,889.131409 1027.353271,883.222107 1027.353271,876.775024 
	C1039.962402,876.775024 1052.207764,876.775024 1064.748291,876.775024 
	C1064.748291,872.007812 1064.748291,867.788879 1064.748291,863.335266 
	C1046.758545,863.335266 1029.063721,863.335266 1011.349060,863.335266 
	C1011.349060,890.703186 1011.349060,917.703552 1011.349060,944.994263 
	C1028.955811,944.994263 1046.092896,944.994263 1064.168213,944.951111 
M400.043304,942.616394 
	C407.653137,946.401978 415.843018,946.716919 423.974579,945.829834 
	C436.226471,944.493408 445.019318,938.069275 449.274780,926.247803 
	C449.724487,924.998596 449.174255,922.445435 448.215485,921.806580 
	C445.091888,919.725220 441.563660,918.251160 437.943817,916.418213 
	C437.074402,918.110840 436.450958,919.242249 435.901093,920.408386 
	C431.744263,929.224243 425.329620,932.760315 414.857178,931.988525 
	C406.835602,931.397339 400.385651,926.231689 397.896576,917.964600 
	C394.993317,908.321960 394.964905,898.529114 398.184448,889.008423 
	C402.631866,875.856384 420.830048,871.117798 431.272278,880.307861 
	C433.554688,882.316406 435.055908,885.212646 437.103546,887.949646 
	C439.731415,886.419739 442.196136,884.708130 444.882690,883.482910 
	C449.406219,881.420105 449.718292,878.613403 446.901031,874.949646 
	C446.090790,873.895874 445.309357,872.809937 444.407745,871.838013 
	C432.379974,858.871460 405.075348,858.155945 391.888214,870.548218 
	C380.107330,881.619019 377.994598,895.822632 379.551117,910.923523 
	C380.953766,924.531982 386.261658,935.930969 400.043304,942.616394 
M591.527161,892.995667 
	C586.292175,883.928711 581.102234,874.835205 575.766968,865.827576 
	C575.078613,864.665344 573.680969,863.217834 572.539124,863.151306 
	C567.521790,862.858948 562.477661,863.025208 556.643860,863.025208 
	C564.156982,876.203552 570.868469,888.609863 578.212524,900.629639 
	C582.932495,908.354797 586.075500,916.073792 585.122009,925.393433 
	C584.472107,931.745789 584.997742,938.218323 584.997742,944.689819 
	C590.689392,944.689819 595.599243,944.689819 601.078125,944.689819 
	C601.078125,935.283691 600.956482,926.175842 601.161255,917.075439 
	C601.214294,914.717957 601.845093,912.140625 602.970825,910.079590 
	C608.466980,900.017395 614.235596,890.104431 619.876831,880.121033 
	C622.945129,874.691101 625.951416,869.226074 629.434265,862.971252 
	C625.050842,862.971252 621.553528,863.357117 618.179077,862.877625 
	C613.514282,862.214966 611.337524,864.471924 609.349915,868.231323 
	C605.001648,876.455566 600.281677,884.483643 595.687683,892.577271 
	C594.804199,894.133789 594.007874,896.373291 591.527161,892.995667 
M242.175049,863.030029 
	C237.573456,863.030029 232.971863,863.030029 228.175140,863.030029 
	C228.175140,890.586548 228.175140,917.484192 228.175140,944.599121 
	C245.829742,944.599121 263.185120,944.599121 280.520691,944.599121 
	C280.520691,939.968079 280.520691,935.747742 280.520691,930.939819 
	C268.215790,930.939819 256.315674,930.939819 243.976318,930.939819 
	C243.976318,928.545288 243.976334,926.744934 243.976334,924.944519 
	C243.976303,906.118591 243.999771,887.292664 243.937164,868.466919 
	C243.931381,866.727539 243.377670,864.990051 242.175049,863.030029 
M1097.145264,916.500000 
	C1097.145264,898.782166 1097.145264,881.064392 1097.145264,863.314148 
	C1091.364502,863.314148 1086.461670,863.314148 1081.456299,863.314148 
	C1081.456299,890.656128 1081.456299,917.653503 1081.456299,944.663330 
	C1086.787231,944.663330 1091.699219,944.663330 1097.145630,944.663330 
	C1097.145630,935.389648 1097.145630,926.444824 1097.145264,916.500000 
z"/>
<path fill="#FFDE59" opacity="1.000000" stroke="none" 
	d="
M944.340332,684.341187 
	C895.947388,731.314575 838.775940,760.220581 772.588928,771.067261 
	C723.859497,779.052979 675.663940,776.003418 628.517273,761.462097 
	C584.890076,748.006165 545.567200,726.413147 511.285217,695.945007 
	C466.263794,655.932129 434.579468,607.318787 416.908020,549.728210 
	C409.719727,526.301880 405.413177,502.316406 403.805206,477.787567 
	C399.909576,418.359467 411.898193,362.333344 439.154327,309.533600 
	C452.435944,283.804962 469.051056,260.415161 488.921844,239.250305 
	C522.673035,203.301147 562.502319,176.547302 608.463562,158.870911 
	C633.576355,149.212692 659.586792,143.029495 686.299255,140.055756 
	C746.139648,133.394043 803.421021,143.119522 857.808289,168.661621 
	C898.892273,187.955994 934.290833,215.112488 963.754395,249.721222 
	C1000.229919,292.566284 1023.851501,341.688324 1034.518188,396.958435 
	C1039.778320,424.214264 1041.201050,451.690125 1039.229492,479.409882 
	C1035.271118,535.065796 1017.781921,586.065979 987.198303,632.628845 
	C974.904358,651.346069 960.607361,668.439331 944.340332,684.341187 
M625.611755,448.796722 
	C618.632385,461.480682 611.617004,474.145020 604.685547,486.855133 
	C599.624146,496.136169 598.686584,505.771149 602.636963,515.706726 
	C607.996155,529.185425 619.836182,536.586670 636.382507,536.596375 
	C699.538757,536.633301 762.695068,536.611389 825.851318,536.611450 
	C827.472656,536.611450 829.093994,536.611450 830.810120,536.611450 
	C830.810120,525.278870 830.810120,514.553894 830.810120,503.602570 
	C829.335815,503.518707 828.194885,503.397461 827.053955,503.397125 
	C792.059692,503.386993 757.065491,503.388763 722.071228,503.388428 
	C695.742249,503.388184 669.413147,503.411530 643.084229,503.371063 
	C636.067932,503.360291 634.667847,500.942200 638.022034,494.761414 
	C641.593811,488.179657 645.491394,481.763550 648.800415,475.054993 
	C650.536377,471.535736 652.698242,470.503448 656.544678,470.518738 
	C694.871094,470.671234 733.198364,470.587738 771.525391,470.621613 
	C786.341431,470.634705 797.291443,464.454041 804.481628,451.274170 
	C823.369751,416.651642 842.486877,382.154114 861.424927,347.558655 
	C862.667236,345.289185 863.738831,342.653137 863.914368,340.120026 
	C864.684509,329.005920 857.562561,322.006317 845.763062,322.004242 
	C766.776062,321.990234 687.789001,321.970856 608.802185,322.079498 
	C605.148438,322.084503 603.171448,321.172089 601.662964,317.671936 
	C598.044312,309.275330 593.809509,301.146240 590.064453,292.801056 
	C588.813049,290.012573 587.333618,288.823792 584.128235,288.912476 
	C575.303040,289.156555 566.466797,288.996796 557.634888,288.996796 
	C550.024841,288.996796 542.414856,288.996796 534.703613,288.996796 
	C534.703613,300.293793 534.703613,311.013092 534.703613,322.003235 
	C544.228821,322.003235 553.388000,322.162537 562.536682,321.921936 
	C566.015076,321.830414 567.756287,322.913513 569.276978,326.143616 
	C587.698730,365.274628 606.309204,404.316742 624.814026,443.408752 
	C625.486877,444.830139 625.578430,446.526672 625.611755,448.796722 
M615.122253,558.552368 
	C599.557617,569.511841 595.702209,589.450500 606.184631,604.774414 
	C616.288025,619.544189 636.157532,623.385437 651.281311,613.492554 
	C666.439209,603.577332 670.701660,583.619324 660.960205,568.173279 
	C651.388550,552.996643 631.610168,548.607727 615.122253,558.552368 
M829.879883,576.902283 
	C824.198547,557.482788 803.226074,547.680115 784.775818,555.912231 
	C768.612793,563.123901 761.323120,581.407410 767.612793,597.772339 
	C774.057434,614.540649 791.287109,622.668152 808.786987,617.194946 
	C824.997009,612.125122 834.239624,594.957031 829.879883,576.902283 
z"/>
<path fill="#326398" opacity="1.000000" stroke="none" 
	d="
M1580.112427,693.888550 
	C1598.436523,717.170105 1616.550781,740.165527 1635.326294,764.000122 
	C1633.036865,764.000122 1631.639282,764.000122 1630.241821,764.000122 
	C1570.083374,764.000122 1509.924927,763.971863 1449.766602,764.075500 
	C1446.404907,764.081299 1444.402466,763.010620 1442.379883,760.349854 
	C1373.140015,669.259033 1303.813599,578.234192 1234.496460,487.202209 
	C1233.531860,485.935486 1232.527344,484.699188 1230.692627,482.371887 
	C1230.692627,576.980469 1230.692627,670.181824 1230.692627,763.690918 
	C1178.653931,763.690918 1127.107300,763.690918 1075.303467,763.690918 
	C1075.303467,551.152344 1075.303467,338.744354 1075.303467,125.883049 
	C1126.803955,125.883049 1178.327026,125.883049 1230.414062,125.883049 
	C1230.414062,218.411438 1230.414062,310.954681 1230.414062,405.094513 
	C1232.418213,402.736938 1233.466675,401.615509 1234.391357,400.400024 
	C1302.960938,310.264160 1371.538574,220.134415 1440.009521,129.923767 
	C1442.477661,126.671906 1444.945312,125.326859 1449.075684,125.336868 
	C1505.900879,125.474693 1562.726562,125.429886 1619.552124,125.429893 
	C1621.330566,125.429893 1623.108887,125.429886 1626.290405,125.429886 
	C1543.350830,230.379379 1461.226318,334.297363 1378.871460,438.506958 
	C1445.923950,523.592224 1512.913330,608.597351 1580.112427,693.888550 
z"/>
<path fill="#326398" opacity="1.000000" stroke="none" 
	d="
M130.000000,763.999634 
	C107.526993,763.999634 85.553978,763.999634 63.261192,763.999634 
	C63.261192,551.157959 63.261192,338.621918 63.261192,125.824989 
	C114.841331,125.824989 166.239182,125.824989 218.186035,125.824989 
	C218.186035,298.460144 218.186035,470.851471 218.186035,643.712646 
	C286.308044,643.712646 353.883850,643.712646 421.781921,643.712646 
	C421.781921,683.916626 421.781921,723.651550 421.781921,763.999634 
	C324.690277,763.999634 227.595139,763.999634 130.000000,763.999634 
z"/>
<path fill="#326398" opacity="1.000000" stroke="none" 
	d="
M1821.000000,763.999634 
	C1783.535645,763.999634 1746.571167,763.999634 1709.300293,763.999634 
	C1709.300293,551.173828 1709.300293,338.659821 1709.300293,125.854996 
	C1760.824707,125.854996 1812.217041,125.854996 1863.965698,125.854996 
	C1863.965698,338.486267 1863.965698,550.988403 1863.965698,763.999634 
	C1849.740967,763.999634 1835.620483,763.999634 1821.000000,763.999634 
z"/>
<path fill="#B5B4B4" opacity="1.000000" stroke="none" 
	d="
M989.094604,867.179504 
	C989.095398,893.141541 989.095398,918.624634 989.095398,944.911438 
	C983.746765,944.911438 978.641418,945.173828 973.598328,944.729858 
	C972.312378,944.616638 970.998962,942.402710 970.078857,940.918091 
	C959.996826,924.651978 949.998901,908.333862 939.943970,892.050903 
	C939.279724,890.975220 938.336609,890.071777 936.489990,887.838806 
	C936.489990,907.602844 936.489990,925.906982 936.489990,944.600586 
	C931.035156,944.600586 926.318054,944.600586 921.237915,944.600586 
	C921.237915,917.595642 921.237915,890.695862 921.237915,863.022766 
	C926.839661,863.022766 932.454285,862.747375 938.007080,863.211914 
	C939.436401,863.331482 940.956299,865.600830 941.950806,867.186035 
	C951.679199,882.692505 961.300720,898.265991 970.974182,913.806946 
	C971.381897,914.461914 972.000671,914.985596 973.472534,916.639893 
	C973.472534,898.218262 973.472534,881.033264 973.472534,863.016968 
	C978.422668,863.016968 982.692505,862.824402 986.915527,863.183411 
	C987.735352,863.253174 988.372498,865.472717 989.094604,867.179504 
z"/>
<path fill="#B5B4B4" opacity="1.000000" stroke="none" 
	d="
M190.874756,880.001526 
	C190.874603,874.213806 190.874603,868.925781 190.874603,863.309387 
	C196.009232,863.309387 200.597717,863.309387 205.643158,863.309387 
	C205.643158,890.311829 205.643158,917.326538 205.643158,944.981567 
	C200.787582,944.981567 195.989349,945.236877 191.249680,944.822388 
	C189.869705,944.701660 188.301132,942.889832 187.422012,941.477722 
	C177.308746,925.233459 167.320450,908.911377 157.267258,892.629578 
	C156.469116,891.336914 155.435593,890.189636 153.389786,889.411499 
	C153.389786,907.633179 153.389786,925.854797 153.389786,944.535522 
	C148.153839,944.535522 143.444489,944.535522 138.300659,944.535522 
	C138.300659,917.598694 138.300659,890.587585 138.300659,862.999512 
	C143.945908,862.999512 149.419159,862.722900 154.829849,863.182678 
	C156.287888,863.306580 157.878601,865.463867 158.861389,867.030823 
	C168.674728,882.678101 178.370590,898.398987 188.117325,914.088074 
	C188.445389,914.616150 188.960602,915.027954 190.874893,915.381958 
	C190.874893,903.755066 190.874893,892.128113 190.874756,880.001526 
z"/>
<path fill="#B6B5B5" opacity="1.000000" stroke="none" 
	d="
M1353.021851,883.782837 
	C1352.657227,890.980408 1348.715088,895.468201 1342.918091,899.252563 
	C1344.117310,899.959656 1344.867310,900.486389 1345.684326,900.870605 
	C1356.247192,905.839233 1360.386841,913.365906 1358.923828,924.992126 
	C1357.656128,935.067017 1350.752930,943.115723 1340.014282,943.832947 
	C1325.321045,944.814270 1310.513062,944.078125 1295.313721,944.078125 
	C1295.313721,917.639954 1295.313721,890.644043 1295.313721,862.971436 
	C1304.680176,862.971436 1313.947876,862.870422 1323.211670,863.012146 
	C1328.172119,863.088013 1333.290771,862.892151 1338.049683,864.027405 
	C1348.728149,866.575012 1352.911621,872.423767 1353.021851,883.782837 
M1310.983276,910.752747 
	C1310.983276,917.689758 1310.983276,924.626831 1310.983276,931.913513 
	C1318.632812,931.913513 1325.626465,932.330505 1332.546509,931.795166 
	C1339.329590,931.270386 1343.211060,926.096619 1342.864746,919.408142 
	C1342.498901,912.344543 1338.233643,908.164124 1330.965454,907.979370 
	C1325.636230,907.843933 1320.296753,907.808838 1314.972290,908.008057 
	C1313.637207,908.058044 1312.342163,909.181458 1310.983276,910.752747 
M1310.971069,892.254517 
	C1311.728271,893.451660 1312.478149,895.676880 1313.243896,895.682312 
	C1319.036987,895.723694 1324.882935,895.707214 1330.612549,894.951294 
	C1335.147949,894.352905 1338.039062,890.245972 1337.791260,885.530579 
	C1337.553589,881.005615 1336.252563,876.538757 1330.919556,875.909973 
	C1324.435547,875.145508 1317.862549,875.134338 1310.969360,874.778748 
	C1310.969360,881.018799 1310.969360,886.163391 1310.971069,892.254517 
z"/>
<path fill="#B6B5B5" opacity="1.000000" stroke="none" 
	d="
M1810.041260,917.000000 
	C1810.041382,898.893066 1810.041382,881.286133 1810.041382,862.997437 
	C1821.113647,862.997437 1831.707397,862.806091 1842.288574,863.088623 
	C1846.716553,863.206909 1851.257080,863.851318 1855.505737,865.084961 
	C1869.948120,869.278320 1878.243286,880.072937 1880.172119,895.024231 
	C1881.302124,903.783569 1881.048462,912.332947 1878.458740,920.622925 
	C1873.516846,936.441956 1861.461670,943.632568 1845.819946,944.739014 
	C1834.238525,945.558167 1822.552734,944.900085 1810.041260,944.900085 
	C1810.041260,935.647827 1810.041260,926.573914 1810.041260,917.000000 
M1860.563599,920.862183 
	C1864.068970,913.746460 1864.624878,906.121033 1863.756836,898.465881 
	C1862.831299,890.302612 1860.357056,882.673767 1851.909424,879.054260 
	C1843.673706,875.525574 1835.081787,876.988770 1826.444336,877.156555 
	C1826.444336,895.321960 1826.444336,912.883362 1826.444336,930.645508 
	C1833.328003,930.645508 1839.976807,931.209839 1846.478882,930.475891 
	C1852.193237,929.830811 1857.143921,926.833069 1860.563599,920.862183 
z"/>
<path fill="#B6B5B5" opacity="1.000000" stroke="none" 
	d="
M1396.582764,944.663208 
	C1382.193481,940.214844 1374.431885,930.381104 1371.931519,916.319519 
	C1369.993774,905.422546 1369.929565,894.510986 1374.010376,883.934631 
	C1378.904175,871.250977 1388.465088,863.914307 1401.571045,862.279785 
	C1429.388306,858.810364 1446.085815,873.578796 1447.030884,900.603333 
	C1447.365112,910.164978 1446.582764,919.481323 1441.987549,928.187317 
	C1436.178833,939.192261 1426.686523,944.681030 1414.785156,945.794739 
	C1408.928223,946.342834 1402.911743,945.184998 1396.582764,944.663208 
M1429.022217,916.231689 
	C1430.750122,906.788940 1431.071533,897.369812 1427.928467,888.150269 
	C1425.332397,880.535522 1419.601807,876.665161 1411.795044,876.035706 
	C1402.927979,875.320923 1394.711182,877.148438 1390.957153,886.222229 
	C1385.998047,898.208557 1385.894653,910.661499 1391.445679,922.473206 
	C1393.031372,925.847351 1396.904785,929.040039 1400.464478,930.422363 
	C1410.468262,934.307251 1425.191895,932.319580 1429.022217,916.231689 
z"/>
<path fill="#B6B5B5" opacity="1.000000" stroke="none" 
	d="
M1782.722046,872.294556 
	C1796.316406,886.231079 1796.285278,918.820435 1784.861572,933.231934 
	C1779.043823,940.570923 1771.280762,944.649048 1762.319336,945.739868 
	C1733.898071,949.199341 1717.306641,933.184326 1717.003296,907.277100 
	C1716.929932,901.012390 1717.063232,894.520020 1718.584106,888.507385 
	C1722.091919,874.640259 1730.922974,865.453735 1745.347900,862.804810 
	C1759.006836,860.296692 1771.869385,861.845764 1782.722046,872.294556 
M1742.211670,928.455261 
	C1743.231445,929.011108 1744.216309,929.646606 1745.276245,930.110474 
	C1756.626221,935.078064 1769.817993,930.902466 1773.569336,920.615356 
	C1777.554321,909.688049 1777.445801,898.419861 1773.623779,887.437012 
	C1771.062988,880.078430 1765.146973,876.573425 1757.575317,876.017761 
	C1748.910278,875.381897 1741.231201,877.314697 1737.016602,885.879395 
	C1732.308472,895.446533 1732.967041,905.673401 1734.959106,915.599304 
	C1735.842529,920.000610 1739.323975,923.880493 1742.211670,928.455261 
z"/>
<path fill="#B6B5B5" opacity="1.000000" stroke="none" 
	d="
M1133.364014,866.226318 
	C1147.988770,859.939331 1162.034180,859.756287 1175.731567,867.804810 
	C1176.444458,868.223633 1177.291260,868.627930 1177.723633,869.274475 
	C1179.868530,872.481934 1184.299927,876.882080 1183.422729,878.776855 
	C1181.958252,881.939941 1177.179565,883.731323 1173.532959,885.580872 
	C1172.821411,885.941711 1170.618042,884.186829 1169.598633,882.986633 
	C1159.662964,871.287659 1138.828125,873.698914 1134.011353,887.765442 
	C1131.717529,894.463989 1131.661499,902.077515 1131.495972,909.297302 
	C1131.404297,913.297546 1132.623535,917.576233 1134.215088,921.319885 
	C1138.892334,932.321106 1154.925049,936.205139 1164.326660,928.792114 
	C1169.242798,924.915710 1169.385376,919.418396 1168.790894,913.114563 
	C1162.703491,913.114563 1156.646484,913.114563 1150.274658,913.114563 
	C1150.274658,908.538452 1150.274658,904.630798 1150.274658,900.306152 
	C1161.709839,900.306152 1173.069092,900.306152 1184.782349,900.306152 
	C1184.782349,915.031006 1184.782349,929.601990 1184.782349,944.589111 
	C1180.063354,944.589111 1175.355469,944.589111 1170.214478,944.589111 
	C1170.039062,941.190613 1169.865967,937.839478 1169.745117,935.500183 
	C1165.223022,938.675415 1161.069458,943.273682 1155.983887,944.833008 
	C1143.091309,948.786133 1128.215332,944.741089 1121.488159,932.674377 
	C1111.674194,915.070801 1111.482544,896.664124 1120.505493,878.800476 
	C1123.018433,873.825378 1128.765015,870.483643 1133.364014,866.226318 
z"/>
<path fill="#B6B5B5" opacity="1.000000" stroke="none" 
	d="
M343.464600,943.707947 
	C328.817566,947.805359 315.049469,947.603821 302.922119,937.864075 
	C295.118347,931.596802 291.650360,922.803284 290.561035,913.089844 
	C289.008972,899.250488 289.738190,885.825073 298.861755,874.230164 
	C304.057495,867.627197 311.037292,863.831543 319.135712,862.598450 
	C336.081573,860.018127 351.711456,863.263306 360.109589,878.128540 
	C363.267639,883.718567 365.008270,890.504944 365.777924,896.939392 
	C366.574036,903.594543 366.069702,910.595581 364.955872,917.247986 
	C362.864777,929.737305 355.900513,938.828857 343.464600,943.707947 
M336.020691,930.893188 
	C342.532043,928.589233 346.326538,923.861572 348.038239,917.323914 
	C350.307037,908.658630 350.479706,899.912476 348.160614,891.281128 
	C345.166473,880.137207 338.545990,875.652893 326.370239,875.969788 
	C316.596710,876.224121 309.943207,881.650574 308.092316,892.365601 
	C306.947754,898.991821 306.513458,906.015198 307.361298,912.655823 
	C309.327057,928.052063 320.465546,935.050354 336.020691,930.893188 
z"/>
<path fill="#B6B5B5" opacity="1.000000" stroke="none" 
	d="
M1694.333740,873.715454 
	C1702.898682,884.388855 1704.555054,896.601013 1703.573608,909.286804 
	C1702.778687,919.562256 1700.145996,929.379822 1692.009888,936.590027 
	C1679.312500,947.842346 1664.620850,948.560425 1649.518311,943.185242 
	C1636.077026,938.401184 1630.148438,927.406921 1627.912109,913.887817 
	C1626.419189,904.863647 1626.769287,895.980591 1629.404297,887.290649 
	C1633.518066,873.723694 1642.401855,864.979126 1656.617188,862.678406 
	C1670.674927,860.403198 1683.860596,861.999451 1694.333740,873.715454 
M1670.655640,931.608215 
	C1678.764893,929.674133 1684.392456,924.558838 1685.389160,916.491028 
	C1686.411865,908.213013 1686.579102,899.554932 1685.318970,891.339478 
	C1683.779419,881.301514 1676.153076,876.048950 1666.123657,875.956299 
	C1654.875610,875.852417 1647.985107,880.413086 1645.670288,890.996033 
	C1644.271240,897.392395 1643.621216,904.289551 1644.383667,910.755493 
	C1646.311279,927.104004 1653.581543,932.700012 1670.655640,931.608215 
z"/>
<path fill="#B6B5B5" opacity="1.000000" stroke="none" 
	d="
M684.835205,945.054077 
	C660.365906,949.785706 639.522217,938.792725 637.067139,912.877258 
	C636.299316,904.772461 636.513367,896.202881 638.308105,888.307556 
	C641.636658,873.664856 651.556946,864.620483 666.534790,862.439697 
	C680.991028,860.334900 694.661255,862.430664 704.316223,874.939331 
	C712.148865,885.086975 713.458862,897.110474 712.574219,909.481262 
	C712.385986,912.112854 711.907104,914.743713 711.334106,917.324341 
	C708.140686,931.708679 699.931519,941.412170 684.835205,945.054077 
M652.999939,903.530029 
	C653.592285,908.286865 653.628784,913.197083 654.890015,917.769409 
	C657.724365,928.044739 665.498474,932.766907 677.060547,931.983032 
	C686.261047,931.359192 693.859741,924.441101 694.841980,914.698059 
	C695.534180,907.832947 695.534180,900.796082 694.899780,893.922974 
	C693.929077,883.406921 686.540588,876.507141 676.802368,875.980286 
	C664.425598,875.310608 656.871460,880.477722 654.291443,891.728943 
	C653.481689,895.259949 653.409973,898.960083 652.999939,903.530029 
z"/>
<path fill="#B7B6B6" opacity="1.000000" stroke="none" 
	d="
M1478.007568,862.967651 
	C1487.627686,863.238281 1496.859863,862.726074 1505.842651,863.987854 
	C1515.932861,865.405090 1522.052002,872.525696 1522.950928,881.425659 
	C1524.092651,892.729431 1520.302124,899.201477 1509.776855,903.929138 
	C1509.335083,904.127625 1508.913330,904.370361 1508.156860,904.760132 
	C1520.848145,915.109985 1520.865479,931.063477 1527.355347,945.001831 
	C1521.874756,945.001831 1517.376831,945.282288 1512.951416,944.838379 
	C1511.542236,944.697144 1509.703369,942.872559 1509.132324,941.402222 
	C1506.970093,935.835205 1505.248047,930.097290 1503.360229,924.423584 
	C1498.982788,911.267090 1495.668945,909.286011 1481.099609,911.526062 
	C1481.099609,922.322083 1481.099609,933.224365 1481.099609,944.561279 
	C1475.361328,944.561279 1470.151367,944.561279 1464.525879,944.561279 
	C1464.525879,917.620300 1464.525879,890.620728 1464.525879,862.967712 
	C1468.963379,862.967712 1473.236328,862.967712 1478.007568,862.967651 
M1480.966431,896.184692 
	C1481.310425,896.708557 1481.669312,897.697998 1481.996094,897.687500 
	C1488.410400,897.480225 1494.942505,897.810547 1501.193604,896.648438 
	C1506.131714,895.730469 1507.162964,890.958801 1507.005737,886.343628 
	C1506.854492,881.901184 1505.558228,877.593872 1500.690918,876.880859 
	C1494.281006,875.942078 1487.716064,876.062317 1480.911133,875.711365 
	C1480.911133,882.989624 1480.911133,889.116394 1480.966431,896.184692 
z"/>
<path fill="#B6B5B5" opacity="1.000000" stroke="none" 
	d="
M1273.121826,916.000000 
	C1273.122070,925.786438 1273.122070,935.072815 1273.122070,944.675659 
	C1267.654419,944.675659 1262.740967,944.675659 1257.125122,944.675659 
	C1257.125122,932.583374 1257.125122,920.535828 1257.125122,908.202515 
	C1244.545776,908.202515 1232.662842,908.202515 1220.232422,908.202515 
	C1220.232422,920.426697 1220.232422,932.345215 1220.232422,944.628113 
	C1214.778076,944.628113 1209.858765,944.628113 1204.486816,944.628113 
	C1204.486816,917.693665 1204.486816,890.671936 1204.486816,863.309387 
	C1209.476074,863.309387 1214.384155,863.309387 1220.145752,863.309387 
	C1220.145752,870.938477 1220.145386,878.522278 1220.145874,886.106079 
	C1220.146362,893.925354 1220.146729,893.925781 1227.966675,893.926147 
	C1237.425171,893.926636 1246.883667,893.926270 1256.913574,893.926270 
	C1256.913574,883.522156 1256.913574,873.618286 1256.913574,863.348145 
	C1262.391113,863.348145 1267.296997,863.348145 1273.121704,863.348145 
	C1273.121704,880.696411 1273.121704,898.098206 1273.121826,916.000000 
z"/>
<path fill="#B5B4B4" opacity="1.000000" stroke="none" 
	d="
M1601.999512,862.972778 
	C1604.770874,862.972717 1607.063232,862.972717 1609.688232,862.972717 
	C1609.688232,890.385254 1609.688232,917.287354 1609.688232,944.595337 
	C1604.638184,944.595337 1599.606323,944.595337 1594.049561,944.595337 
	C1594.049561,932.518982 1594.049561,920.600525 1594.049561,908.287292 
	C1581.647095,908.287292 1569.757202,908.287292 1557.172729,908.287292 
	C1557.172729,920.302124 1557.172729,932.351074 1557.172729,944.690552 
	C1551.572876,944.690552 1546.659546,944.690552 1541.357910,944.690552 
	C1541.357910,917.691345 1541.357910,890.789917 1541.357910,863.429810 
	C1546.264404,863.429810 1551.296021,863.429810 1556.909424,863.429810 
	C1556.909424,873.347717 1556.909424,883.256042 1556.909424,893.539673 
	C1569.368652,893.539673 1581.260742,893.539673 1593.726074,893.539673 
	C1593.726074,883.641602 1593.726074,873.736572 1593.726074,862.972778 
	C1596.694702,862.972778 1599.107666,862.972778 1601.999512,862.972778 
z"/>
<path fill="#B6B5B5" opacity="1.000000" stroke="none" 
	d="
M871.342041,920.701416 
	C874.043091,928.750549 876.597168,936.439941 879.433105,944.977844 
	C874.095398,944.977844 869.494629,945.183105 864.936829,944.831665 
	C863.814392,944.745117 862.337952,943.026184 861.868835,941.747803 
	C859.636108,935.662903 857.695129,929.470947 855.650085,923.317261 
	C851.938293,912.148376 850.206970,910.893921 838.462097,910.960571 
	C836.841187,910.969788 835.221008,911.118408 833.101440,911.228333 
	C833.101440,922.477966 833.101440,933.395203 833.101440,944.650818 
	C827.660767,944.650818 822.746643,944.650818 817.399170,944.650818 
	C817.399170,917.655579 817.399170,890.635742 817.399170,863.819519 
	C831.093018,863.819519 844.754761,862.840942 858.201294,864.121765 
	C869.440125,865.192322 874.975708,872.052490 875.599304,883.275696 
	C876.056030,891.495361 874.081726,898.695129 863.268372,903.415588 
	C862.537964,903.734436 861.879211,904.217712 862.064331,904.108887 
	C865.197083,909.678406 868.196045,915.010010 871.342041,920.701416 
M833.047180,879.726440 
	C833.047180,885.663940 833.047180,891.601501 833.047180,897.437866 
	C839.866516,897.437866 846.045471,898.020569 852.055969,897.264709 
	C857.461609,896.584961 860.312500,891.626892 859.771179,886.129211 
	C859.166382,879.986450 855.807434,876.320557 850.086853,876.034424 
	C845.432190,875.801697 840.747437,875.787537 836.100586,876.074402 
	C835.033630,876.140198 834.067383,877.836304 833.047180,879.726440 
z"/>
<path fill="#B6B5B5" opacity="1.000000" stroke="none" 
	d="
M791.641479,933.498047 
	C785.636414,942.536804 776.909363,945.968201 767.040649,945.832947 
	C759.684998,945.732117 751.979004,945.112854 745.091492,942.773926 
	C733.423340,938.811462 729.779175,928.261536 729.371643,917.233032 
	C728.714844,899.459045 729.195129,881.643005 729.195129,863.408203 
	C734.374268,863.408203 739.267517,863.408203 744.824707,863.408203 
	C744.912659,864.978577 745.092285,866.723083 745.095093,868.467896 
	C745.118286,882.791687 745.089600,897.115540 745.130554,911.439209 
	C745.136230,913.420471 745.447998,915.400146 745.598816,917.381958 
	C746.617859,930.775391 757.925293,933.532166 767.764282,931.533203 
	C775.960449,929.868042 779.948303,924.556824 780.009888,915.704407 
	C780.118713,900.048889 780.051392,884.392151 780.057556,868.735962 
	C780.058228,867.093994 780.057678,865.452087 780.057678,863.390625 
	C785.324158,863.390625 790.224426,863.390625 795.754517,863.390625 
	C795.842529,864.803833 796.025635,866.387634 796.026855,867.971558 
	C796.039062,883.960876 796.382568,899.962891 795.821472,915.932800 
	C795.617981,921.723267 793.232117,927.437134 791.641479,933.498047 
z"/>
<path fill="#B6B5B5" opacity="1.000000" stroke="none" 
	d="
M100.994133,902.996460 
	C100.994125,889.539490 100.994125,876.581665 100.994125,863.300537 
	C106.419136,863.300537 111.322937,863.300537 116.625381,863.300537 
	C116.743790,864.835693 116.949577,866.275757 116.951424,867.716064 
	C116.971504,883.382446 117.012276,899.049072 116.943298,914.715149 
	C116.854744,934.826599 105.805115,945.757629 85.626892,946.070923 
	C75.758507,946.224182 66.290100,945.316162 58.594692,938.203613 
	C52.701000,932.756348 50.382576,925.526306 50.211304,917.963440 
	C49.811447,900.306519 50.082008,882.634399 50.103939,864.968445 
	C50.104511,864.507141 50.369331,864.046143 50.600929,863.291870 
	C55.500561,863.291870 60.403000,863.291870 66.008736,863.291870 
	C66.008736,865.215454 66.008568,866.984131 66.008759,868.752747 
	C66.010384,883.752502 65.957008,898.752441 66.028954,913.751892 
	C66.103905,929.378662 80.218910,937.385620 93.906555,929.566101 
	C99.304222,926.482605 100.587585,921.118225 100.927109,915.492554 
	C101.167664,911.506714 100.986862,907.495483 100.994133,902.996460 
z"/>
<path fill="#B6B5B5" opacity="1.000000" stroke="none" 
	d="
M497.794739,904.236938 
	C508.421143,917.586792 518.814148,930.672607 530.165222,944.964783 
	C523.072266,944.964783 517.507996,945.111206 511.963409,944.845825 
	C510.801544,944.790222 509.507324,943.387512 508.621460,942.317871 
	C500.350677,932.331726 492.165131,922.275024 483.923004,912.265015 
	C483.169037,911.349304 482.193329,910.616211 480.244568,908.789856 
	C480.244568,921.579346 480.244568,932.936951 480.244568,944.641113 
	C474.683441,944.641113 469.771912,944.641113 464.411987,944.641113 
	C464.411987,917.692627 464.411987,890.684143 464.411987,863.322510 
	C469.364258,863.322510 474.273743,863.322510 480.015228,863.322510 
	C480.015228,874.101624 480.015228,884.928589 480.015228,895.755554 
	C480.529633,895.962585 481.044006,896.169556 481.558411,896.376587 
	C484.801971,892.596680 488.109802,888.869629 491.274628,885.024902 
	C496.555878,878.608948 501.652161,872.037720 507.049561,865.722717 
	C508.192230,864.385742 510.243164,863.240173 511.965729,863.097900 
	C516.407837,862.731140 520.900330,862.975159 526.753967,862.975159 
	C523.207703,867.542114 520.398132,871.277161 517.465515,874.913086 
	C511.203552,882.676636 504.816406,890.340210 498.630096,898.163025 
	C497.386597,899.735352 494.671875,901.461426 497.794739,904.236938 
z"/>
<path fill="#B6B5B5" opacity="1.000000" stroke="none" 
	d="
M1063.699097,944.972656 
	C1046.092896,944.994263 1028.955811,944.994263 1011.349060,944.994263 
	C1011.349060,917.703552 1011.349060,890.703186 1011.349060,863.335266 
	C1029.063721,863.335266 1046.758545,863.335266 1064.748291,863.335266 
	C1064.748291,867.788879 1064.748291,872.007812 1064.748291,876.775024 
	C1052.207764,876.775024 1039.962402,876.775024 1027.353271,876.775024 
	C1027.353271,883.222107 1027.353271,889.131409 1027.353271,895.746704 
	C1038.005859,895.746704 1048.715210,895.746704 1059.767822,895.746704 
	C1059.767822,900.347351 1059.767822,904.258362 1059.767822,908.840088 
	C1049.066528,908.840088 1038.353149,908.840088 1027.314697,908.840088 
	C1027.314697,916.408081 1027.314697,923.317078 1027.314697,930.966125 
	C1039.999756,930.966125 1052.692871,930.966125 1066.925171,930.966125 
	C1065.882690,936.254028 1065.025513,940.602600 1063.699097,944.972656 
z"/>
<path fill="#B6B5B5" opacity="1.000000" stroke="none" 
	d="
M399.709259,942.436646 
	C386.261658,935.930969 380.953766,924.531982 379.551117,910.923523 
	C377.994598,895.822632 380.107330,881.619019 391.888214,870.548218 
	C405.075348,858.155945 432.379974,858.871460 444.407745,871.838013 
	C445.309357,872.809937 446.090790,873.895874 446.901031,874.949646 
	C449.718292,878.613403 449.406219,881.420105 444.882690,883.482910 
	C442.196136,884.708130 439.731415,886.419739 437.103546,887.949646 
	C435.055908,885.212646 433.554688,882.316406 431.272278,880.307861 
	C420.830048,871.117798 402.631866,875.856384 398.184448,889.008423 
	C394.964905,898.529114 394.993317,908.321960 397.896576,917.964600 
	C400.385651,926.231689 406.835602,931.397339 414.857178,931.988525 
	C425.329620,932.760315 431.744263,929.224243 435.901093,920.408386 
	C436.450958,919.242249 437.074402,918.110840 437.943817,916.418213 
	C441.563660,918.251160 445.091888,919.725220 448.215485,921.806580 
	C449.174255,922.445435 449.724487,924.998596 449.274780,926.247803 
	C445.019318,938.069275 436.226471,944.493408 423.974579,945.829834 
	C415.843018,946.716919 407.653137,946.401978 399.709259,942.436646 
z"/>
<path fill="#B6B5B5" opacity="1.000000" stroke="none" 
	d="
M591.709717,893.309570 
	C594.007874,896.373291 594.804199,894.133789 595.687683,892.577271 
	C600.281677,884.483643 605.001648,876.455566 609.349915,868.231323 
	C611.337524,864.471924 613.514282,862.214966 618.179077,862.877625 
	C621.553528,863.357117 625.050842,862.971252 629.434265,862.971252 
	C625.951416,869.226074 622.945129,874.691101 619.876831,880.121033 
	C614.235596,890.104431 608.466980,900.017395 602.970825,910.079590 
	C601.845093,912.140625 601.214294,914.717957 601.161255,917.075439 
	C600.956482,926.175842 601.078125,935.283691 601.078125,944.689819 
	C595.599243,944.689819 590.689392,944.689819 584.997742,944.689819 
	C584.997742,938.218323 584.472107,931.745789 585.122009,925.393433 
	C586.075500,916.073792 582.932495,908.354797 578.212524,900.629639 
	C570.868469,888.609863 564.156982,876.203552 556.643860,863.025208 
	C562.477661,863.025208 567.521790,862.858948 572.539124,863.151306 
	C573.680969,863.217834 575.078613,864.665344 575.766968,865.827576 
	C581.102234,874.835205 586.292175,883.928711 591.709717,893.309570 
z"/>
<path fill="#B6B5B5" opacity="1.000000" stroke="none" 
	d="
M242.626709,863.140869 
	C243.377670,864.990051 243.931381,866.727539 243.937164,868.466919 
	C243.999771,887.292664 243.976303,906.118591 243.976334,924.944519 
	C243.976334,926.744934 243.976318,928.545288 243.976318,930.939819 
	C256.315674,930.939819 268.215790,930.939819 280.520691,930.939819 
	C280.520691,935.747742 280.520691,939.968079 280.520691,944.599121 
	C263.185120,944.599121 245.829742,944.599121 228.175140,944.599121 
	C228.175140,917.484192 228.175140,890.586548 228.175140,863.030029 
	C232.971863,863.030029 237.573456,863.030029 242.626709,863.140869 
z"/>
<path fill="#B6B5B5" opacity="1.000000" stroke="none" 
	d="
M1097.145508,917.000000 
	C1097.145630,926.444824 1097.145630,935.389648 1097.145630,944.663330 
	C1091.699219,944.663330 1086.787231,944.663330 1081.456299,944.663330 
	C1081.456299,917.653503 1081.456299,890.656128 1081.456299,863.314148 
	C1086.461670,863.314148 1091.364502,863.314148 1097.145264,863.314148 
	C1097.145264,881.064392 1097.145264,898.782166 1097.145508,917.000000 
z"/>
<path fill="#336498" opacity="1.000000" stroke="none" 
	d="
M625.776306,448.445862 
	C625.578430,446.526672 625.486877,444.830139 624.814026,443.408752 
	C606.309204,404.316742 587.698730,365.274628 569.276978,326.143616 
	C567.756287,322.913513 566.015076,321.830414 562.536682,321.921936 
	C553.388000,322.162537 544.228821,322.003235 534.703613,322.003235 
	C534.703613,311.013092 534.703613,300.293793 534.703613,288.996796 
	C542.414856,288.996796 550.024841,288.996796 557.634888,288.996796 
	C566.466797,288.996796 575.303040,289.156555 584.128235,288.912476 
	C587.333618,288.823792 588.813049,290.012573 590.064453,292.801056 
	C593.809509,301.146240 598.044312,309.275330 601.662964,317.671936 
	C603.171448,321.172089 605.148438,322.084503 608.802185,322.079498 
	C687.789001,321.970856 766.776062,321.990234 845.763062,322.004242 
	C857.562561,322.006317 864.684509,329.005920 863.914368,340.120026 
	C863.738831,342.653137 862.667236,345.289185 861.424927,347.558655 
	C842.486877,382.154114 823.369751,416.651642 804.481628,451.274170 
	C797.291443,464.454041 786.341431,470.634705 771.525391,470.621613 
	C733.198364,470.587738 694.871094,470.671234 656.544678,470.518738 
	C652.698242,470.503448 650.536377,471.535736 648.800415,475.054993 
	C645.491394,481.763550 641.593811,488.179657 638.022034,494.761414 
	C634.667847,500.942200 636.067932,503.360291 643.084229,503.371063 
	C669.413147,503.411530 695.742249,503.388184 722.071228,503.388428 
	C757.065491,503.388763 792.059692,503.386993 827.053955,503.397125 
	C828.194885,503.397461 829.335815,503.518707 830.810120,503.602570 
	C830.810120,514.553894 830.810120,525.278870 830.810120,536.611450 
	C829.093994,536.611450 827.472656,536.611450 825.851318,536.611450 
	C762.695068,536.611389 699.538757,536.633301 636.382507,536.596375 
	C619.836182,536.586670 607.996155,529.185425 602.636963,515.706726 
	C598.686584,505.771149 599.624146,496.136169 604.685547,486.855133 
	C611.617004,474.145020 618.632385,461.480682 625.776306,448.445862 
z"/>
<path fill="#346498" opacity="1.000000" stroke="none" 
	d="
M615.424377,558.343994 
	C631.610168,548.607727 651.388550,552.996643 660.960205,568.173279 
	C670.701660,583.619324 666.439209,603.577332 651.281311,613.492554 
	C636.157532,623.385437 616.288025,619.544189 606.184631,604.774414 
	C595.702209,589.450500 599.557617,569.511841 615.424377,558.343994 
z"/>
<path fill="#346498" opacity="1.000000" stroke="none" 
	d="
M829.960815,577.308228 
	C834.239624,594.957031 824.997009,612.125122 808.786987,617.194946 
	C791.287109,622.668152 774.057434,614.540649 767.612793,597.772339 
	C761.323120,581.407410 768.612793,563.123901 784.775818,555.912231 
	C803.226074,547.680115 824.198547,557.482788 829.960815,577.308228 
z"/>
<path fill="#FEFEFE" opacity="1.000000" stroke="none" 
	d="
M1311.006104,910.282104 
	C1312.342163,909.181458 1313.637207,908.058044 1314.972290,908.008057 
	C1320.296753,907.808838 1325.636230,907.843933 1330.965454,907.979370 
	C1338.233643,908.164124 1342.498901,912.344543 1342.864746,919.408142 
	C1343.211060,926.096619 1339.329590,931.270386 1332.546509,931.795166 
	C1325.626465,932.330505 1318.632812,931.913513 1310.983276,931.913513 
	C1310.983276,924.626831 1310.983276,917.689758 1311.006104,910.282104 
z"/>
<path fill="#FDFDFD" opacity="1.000000" stroke="none" 
	d="
M1310.970215,891.781250 
	C1310.969360,886.163391 1310.969360,881.018799 1310.969360,874.778748 
	C1317.862549,875.134338 1324.435547,875.145508 1330.919556,875.909973 
	C1336.252563,876.538757 1337.553589,881.005615 1337.791260,885.530579 
	C1338.039062,890.245972 1335.147949,894.352905 1330.612549,894.951294 
	C1324.882935,895.707214 1319.036987,895.723694 1313.243896,895.682312 
	C1312.478149,895.676880 1311.728271,893.451660 1310.970215,891.781250 
z"/>
<path fill="#FEFEFE" opacity="1.000000" stroke="none" 
	d="
M1860.376709,921.187622 
	C1857.143921,926.833069 1852.193237,929.830811 1846.478882,930.475891 
	C1839.976807,931.209839 1833.328003,930.645508 1826.444336,930.645508 
	C1826.444336,912.883362 1826.444336,895.321960 1826.444336,877.156555 
	C1835.081787,876.988770 1843.673706,875.525574 1851.909424,879.054260 
	C1860.357056,882.673767 1862.831299,890.302612 1863.756836,898.465881 
	C1864.624878,906.121033 1864.068970,913.746460 1860.376709,921.187622 
z"/>
<path fill="#FEFEFE" opacity="1.000000" stroke="none" 
	d="
M1428.952026,916.638428 
	C1425.191895,932.319580 1410.468262,934.307251 1400.464478,930.422363 
	C1396.904785,929.040039 1393.031372,925.847351 1391.445679,922.473206 
	C1385.894653,910.661499 1385.998047,898.208557 1390.957153,886.222229 
	C1394.711182,877.148438 1402.927979,875.320923 1411.795044,876.035706 
	C1419.601807,876.665161 1425.332397,880.535522 1427.928467,888.150269 
	C1431.071533,897.369812 1430.750122,906.788940 1428.952026,916.638428 
z"/>
<path fill="#FEFEFE" opacity="1.000000" stroke="none" 
	d="
M1741.918823,928.226196 
	C1739.323975,923.880493 1735.842529,920.000610 1734.959106,915.599304 
	C1732.967041,905.673401 1732.308472,895.446533 1737.016602,885.879395 
	C1741.231201,877.314697 1748.910278,875.381897 1757.575317,876.017761 
	C1765.146973,876.573425 1771.062988,880.078430 1773.623779,887.437012 
	C1777.445801,898.419861 1777.554321,909.688049 1773.569336,920.615356 
	C1769.817993,930.902466 1756.626221,935.078064 1745.276245,930.110474 
	C1744.216309,929.646606 1743.231445,929.011108 1741.918823,928.226196 
z"/>
<path fill="#FEFEFE" opacity="1.000000" stroke="none" 
	d="
M335.625122,930.987671 
	C320.465546,935.050354 309.327057,928.052063 307.361298,912.655823 
	C306.513458,906.015198 306.947754,898.991821 308.092316,892.365601 
	C309.943207,881.650574 316.596710,876.224121 326.370239,875.969788 
	C338.545990,875.652893 345.166473,880.137207 348.160614,891.281128 
	C350.479706,899.912476 350.307037,908.658630 348.038239,917.323914 
	C346.326538,923.861572 342.532043,928.589233 335.625122,930.987671 
z"/>
<path fill="#FEFEFE" opacity="1.000000" stroke="none" 
	d="
M1670.245605,931.720215 
	C1653.581543,932.700012 1646.311279,927.104004 1644.383667,910.755493 
	C1643.621216,904.289551 1644.271240,897.392395 1645.670288,890.996033 
	C1647.985107,880.413086 1654.875610,875.852417 1666.123657,875.956299 
	C1676.153076,876.048950 1683.779419,881.301514 1685.318970,891.339478 
	C1686.579102,899.554932 1686.411865,908.213013 1685.389160,916.491028 
	C1684.392456,924.558838 1678.764893,929.674133 1670.245605,931.720215 
z"/>
<path fill="#FEFEFE" opacity="1.000000" stroke="none" 
	d="
M653.000183,903.056396 
	C653.409973,898.960083 653.481689,895.259949 654.291443,891.728943 
	C656.871460,880.477722 664.425598,875.310608 676.802368,875.980286 
	C686.540588,876.507141 693.929077,883.406921 694.899780,893.922974 
	C695.534180,900.796082 695.534180,907.832947 694.841980,914.698059 
	C693.859741,924.441101 686.261047,931.359192 677.060547,931.983032 
	C665.498474,932.766907 657.724365,928.044739 654.890015,917.769409 
	C653.628784,913.197083 653.592285,908.286865 653.000183,903.056396 
z"/>
<path fill="#FEFEFE" opacity="1.000000" stroke="none" 
	d="
M1480.938721,895.713989 
	C1480.911133,889.116394 1480.911133,882.989624 1480.911133,875.711365 
	C1487.716064,876.062317 1494.281006,875.942078 1500.690918,876.880859 
	C1505.558228,877.593872 1506.854492,881.901184 1507.005737,886.343628 
	C1507.162964,890.958801 1506.131714,895.730469 1501.193604,896.648438 
	C1494.942505,897.810547 1488.410400,897.480225 1481.996094,897.687500 
	C1481.669312,897.697998 1481.310425,896.708557 1480.938721,895.713989 
z"/>
<path fill="#FEFEFE" opacity="1.000000" stroke="none" 
	d="
M833.051025,879.254272 
	C834.067383,877.836304 835.033630,876.140198 836.100586,876.074402 
	C840.747437,875.787537 845.432190,875.801697 850.086853,876.034424 
	C855.807434,876.320557 859.166382,879.986450 859.771179,886.129211 
	C860.312500,891.626892 857.461609,896.584961 852.055969,897.264709 
	C846.045471,898.020569 839.866516,897.437866 833.047180,897.437866 
	C833.047180,891.601501 833.047180,885.663940 833.051025,879.254272 
z"/>
</svg>